<svg width="54" height="54" viewBox="0 0 54 54" fill="none" xmlns="http://www.w3.org/2000/svg">
<path d="M27 40.5C38.1838 40.5 47.25 31.4338 47.25 20.25C47.25 9.06623 38.1838 0 27 0C15.8162 0 6.75 9.06623 6.75 20.25C6.75 31.4338 15.8162 40.5 27 40.5Z" fill="#FBBC04"/>
<path d="M27 40.5C38.1838 40.5 47.25 31.4338 47.25 20.25C47.25 9.06623 38.1838 0 27 0C15.8162 0 6.75 9.06623 6.75 20.25C6.75 31.4338 15.8162 40.5 27 40.5Z" fill="url(#paint0_linear_1_927)"/>
<path d="M32.0625 54C40.4503 54 47.25 47.2003 47.25 38.8125C47.25 30.4247 40.4503 23.625 32.0625 23.625C23.6747 23.625 16.875 30.4247 16.875 38.8125C16.875 47.2003 23.6747 54 32.0625 54Z" fill="url(#paint1_linear_1_927)"/>
<path fill-rule="evenodd" clip-rule="evenodd" d="M32.0625 54C32.0625 50.6434 30.7291 47.4242 28.3556 45.0507C25.9821 42.6772 22.7629 41.3438 19.4062 41.3438C16.0496 41.3438 12.8304 42.6772 10.4569 45.0507C8.08342 47.4242 6.75 50.6434 6.75 54C6.76856 53.9713 32.0692 53.9797 32.0625 54Z" fill="#9D9D9D"/>
<defs>
<linearGradient id="paint0_linear_1_927" x1="6.75" y1="0" x2="34.2329" y2="30.7926" gradientUnits="userSpaceOnUse">
<stop stop-color="#FCD35C"/>
<stop offset="1" stop-color="#FBBC04"/>
</linearGradient>
<linearGradient id="paint1_linear_1_927" x1="23.7072" y1="28.9087" x2="47.25" y2="58.6176" gradientUnits="userSpaceOnUse">
<stop stop-color="#D2D2D2" stop-opacity="0.77"/>
<stop offset="1" stop-color="#A7A7A7"/>
</linearGradient>
</defs>
</svg>
